<svg width="180" height="22" viewBox="0 0 180 22" fill="none" xmlns="http://www.w3.org/2000/svg">
<path d="M160.96 11.5721C160.94 11.021 160.838 10.5414 160.654 10.1332C160.491 9.70462 160.266 9.35766 159.981 9.09234C159.695 8.80661 159.368 8.60252 159.001 8.48007C158.634 8.3372 158.256 8.26577 157.868 8.26577C157.072 8.26577 156.378 8.5617 155.787 9.15357C155.215 9.72503 154.889 10.5312 154.807 11.5721H160.96ZM154.685 14.0824C154.746 15.2253 155.072 16.1335 155.664 16.807C156.276 17.4805 157.072 17.8173 158.052 17.8173C158.705 17.8173 159.277 17.6744 159.766 17.3887C160.277 17.0825 160.603 16.6642 160.746 16.1335H164.848C164.379 17.6846 163.563 18.8786 162.399 19.7153C161.236 20.5521 159.848 20.9705 158.236 20.9705C153.215 20.9705 150.705 18.2357 150.705 12.766C150.705 11.6027 150.868 10.5516 151.195 9.61278C151.521 8.67395 151.991 7.86779 152.603 7.19429C153.235 6.52078 154.001 6.01055 154.899 5.6636C155.797 5.29623 156.827 5.11255 157.991 5.11255C160.317 5.11255 162.073 5.85749 163.256 7.34736C164.461 8.83723 165.063 11.0822 165.063 14.0824H154.685Z" fill="white"/>
<path d="M176.234 20.5725V18.4602C175.214 20.1337 173.653 20.9705 171.551 20.9705C170.795 20.9705 170.102 20.8378 169.469 20.5725C168.857 20.3072 168.326 19.9296 167.877 19.4398C167.428 18.95 167.071 18.3683 166.805 17.6948C166.561 17.0213 166.438 16.2662 166.438 15.4294V5.51053H170.418V14.8171C170.418 16.6948 171.265 17.6336 172.959 17.6336C173.979 17.6336 174.745 17.3173 175.255 16.6846C175.785 16.0315 176.051 15.2049 176.051 14.2048V5.51053H180V20.5725H176.234Z" fill="white"/>
<path d="M145.968 21.0227C147.578 21.0227 148.894 19.7058 148.894 18.0964C148.894 16.4869 147.578 15.17 145.968 15.17C144.359 15.17 143.042 16.4869 143.042 18.0964C143.042 19.7058 144.359 21.0227 145.968 21.0227Z" fill="#F2C94C"/>
<path d="M2.23481 20.5725V8.32695H0V5.51049H2.23481C2.23481 1.83683 4.36757 0 8.63309 0V3.21445C8.12286 3.21445 7.70447 3.25527 7.37793 3.3369C7.07179 3.39813 6.82688 3.52059 6.6432 3.70427C6.45951 3.88795 6.32685 4.13286 6.24522 4.439C6.18399 4.72473 6.15337 5.08189 6.15337 5.51049H8.72493V8.32695H6.15337V20.5725H2.23481Z" fill="white"/>
<path d="M9.70218 20.5725V5.51049H13.4371V7.3167C13.7636 6.80647 14.1004 6.40849 14.4473 6.12276C14.8147 5.83703 15.1821 5.62274 15.5494 5.47987C15.9372 5.3166 16.325 5.21455 16.7127 5.17373C17.1005 5.13292 17.4985 5.11251 17.9067 5.11251H18.4271V9.18414C18.0598 9.12291 17.6924 9.0923 17.325 9.0923C14.8963 9.0923 13.682 10.3066 13.682 12.7353V20.5725H9.70218Z" fill="white"/>
<path d="M28.5302 11.572C28.5097 11.021 28.4077 10.5414 28.224 10.1332C28.0607 9.70458 27.8362 9.35762 27.5505 9.0923C27.2648 8.80657 26.9382 8.60248 26.5709 8.48002C26.2035 8.33716 25.8259 8.26573 25.4382 8.26573C24.6422 8.26573 23.9483 8.56166 23.3564 9.15353C22.785 9.72499 22.4584 10.5311 22.3768 11.572H28.5302ZM22.2543 14.0823C22.3155 15.2253 22.6421 16.1335 23.234 16.807C23.8462 17.4805 24.6422 17.8172 25.6218 17.8172C26.2749 17.8172 26.8464 17.6744 27.3362 17.3886C27.8464 17.0825 28.173 16.6641 28.3159 16.1335H32.4181C31.9487 17.6846 31.1323 18.8785 29.969 19.7153C28.8057 20.5521 27.4178 20.9705 25.8055 20.9705C20.7849 20.9705 18.2745 18.2356 18.2745 12.766C18.2745 11.6026 18.4378 10.5516 18.7643 9.61273C19.0909 8.67391 19.5603 7.86775 20.1726 7.19424C20.8053 6.52074 21.5706 6.01051 22.4686 5.66355C23.3666 5.29619 24.3973 5.11251 25.5606 5.11251C27.8873 5.11251 29.6425 5.85744 30.8262 7.34731C32.0303 8.83719 32.6324 11.0822 32.6324 14.0823H22.2543Z" fill="white"/>
<path d="M43.9267 11.572C43.9063 11.021 43.8043 10.5414 43.6206 10.1332C43.4573 9.70458 43.2328 9.35762 42.9471 9.0923C42.6614 8.80657 42.3348 8.60248 41.9675 8.48002C41.6001 8.33716 41.2225 8.26573 40.8347 8.26573C40.0388 8.26573 39.3449 8.56166 38.753 9.15353C38.1815 9.72499 37.855 10.5311 37.7734 11.572H43.9267ZM37.6509 14.0823C37.7121 15.2253 38.0387 16.1335 38.6306 16.807C39.2428 17.4805 40.0388 17.8172 41.0184 17.8172C41.6715 17.8172 42.243 17.6744 42.7328 17.3886C43.243 17.0825 43.5696 16.6641 43.7124 16.1335H47.8147C47.3453 17.6846 46.5289 18.8785 45.3656 19.7153C44.2023 20.5521 42.8144 20.9705 41.2021 20.9705C36.1814 20.9705 33.6711 18.2356 33.6711 12.766C33.6711 11.6026 33.8344 10.5516 34.1609 9.61273C34.4875 8.67391 34.9569 7.86775 35.5692 7.19424C36.2019 6.52074 36.9672 6.01051 37.8652 5.66355C38.7632 5.29619 39.7939 5.11251 40.9572 5.11251C43.2839 5.11251 45.039 5.85744 46.2228 7.34731C47.4269 8.83719 48.029 11.0822 48.029 14.0823H37.6509Z" fill="white"/>
<path d="M66.4031 20.5725V0H70.3829V20.5725H66.4031Z" fill="white"/>
<path d="M81.207 13.1945C81.0029 13.3986 80.707 13.5619 80.3192 13.6844C79.9314 13.8068 79.3702 13.9395 78.6355 14.0823C77.4925 14.3069 76.7068 14.5926 76.2782 14.9395C75.8496 15.2865 75.6353 15.7865 75.6353 16.4396C75.6353 17.5621 76.2782 18.1234 77.564 18.1234C78.0742 18.1234 78.5436 18.0417 78.9722 17.8785C79.4212 17.6948 79.7988 17.4601 80.1049 17.1743C80.4315 16.8682 80.6866 16.5212 80.8703 16.1335C81.0744 15.7253 81.1764 15.2967 81.1764 14.8477L81.207 13.1945ZM81.4825 20.5725C81.3601 20.1847 81.2784 19.7357 81.2376 19.2255C80.7682 19.7561 80.1457 20.1847 79.3702 20.5112C78.5946 20.8174 77.6966 20.9705 76.6762 20.9705C74.9414 20.9705 73.6658 20.5929 72.8494 19.8377C72.0535 19.0622 71.6555 18.0621 71.6555 16.8376C71.6555 15.7559 71.829 14.8987 72.1759 14.266C72.5229 13.6129 73.0025 13.1027 73.6148 12.7353C74.2271 12.368 74.9516 12.1027 75.7884 11.9394C76.6456 11.7557 77.5742 11.5924 78.5742 11.4496C79.5743 11.3067 80.2478 11.123 80.5947 10.8985C80.9417 10.6536 81.1152 10.2658 81.1152 9.73519C81.1152 9.24537 80.8805 8.8678 80.4111 8.60248C79.9621 8.31675 79.3498 8.17389 78.5742 8.17389C77.6558 8.17389 76.9925 8.37798 76.5843 8.78616C76.1966 9.19435 75.9516 9.73519 75.8496 10.4087H72.1453C72.1657 9.63314 72.2882 8.91882 72.5127 8.26573C72.7576 7.61263 73.1352 7.05138 73.6454 6.58197C74.176 6.11256 74.8598 5.7554 75.6965 5.51049C76.5333 5.24517 77.5538 5.11251 78.7579 5.11251C79.9416 5.11251 80.9417 5.24517 81.7581 5.51049C82.5948 5.7758 83.2581 6.16358 83.748 6.67381C84.2582 7.16363 84.6256 7.78611 84.8501 8.54125C85.0746 9.27598 85.1868 10.1128 85.1868 11.0516V20.5725H81.4825Z" fill="white"/>
<path d="M96.5852 20.5725V11.4496C96.5852 10.2862 96.3913 9.50048 96.0035 9.0923C95.6158 8.68412 94.9525 8.48002 94.0136 8.48002C91.9523 8.48002 90.9216 9.63315 90.9216 11.9394V20.5725H86.9418V5.51049H90.738V7.71468C91.2074 6.85749 91.8298 6.2146 92.6054 5.78601C93.3809 5.33701 94.381 5.11251 95.6056 5.11251C96.3199 5.11251 96.9832 5.22476 97.5954 5.44926C98.2077 5.65335 98.7282 5.96969 99.1568 6.39829C99.6058 6.82688 99.9527 7.35752 100.198 7.9902C100.463 8.60248 100.596 9.3168 100.596 10.1332V20.5725H96.5852Z" fill="white"/>
<path d="M115.9 15.1232C115.798 16.0008 115.543 16.7968 115.135 17.5111C114.747 18.2254 114.247 18.8377 113.635 19.3479C113.023 19.8582 112.319 20.2561 111.523 20.5419C110.747 20.8276 109.9 20.9705 108.982 20.9705C107.961 20.9705 107.022 20.8072 106.165 20.4806C105.328 20.1337 104.604 19.6234 103.992 18.9499C103.379 18.256 102.9 17.409 102.553 16.409C102.226 15.3885 102.063 14.2048 102.063 12.8578C102.063 11.5108 102.226 10.3475 102.553 9.36782C102.9 8.38818 103.379 7.59222 103.992 6.97995C104.604 6.34726 105.339 5.87785 106.196 5.57171C107.073 5.26558 108.043 5.11251 109.104 5.11251C110.084 5.11251 110.972 5.24517 111.767 5.51049C112.584 5.7758 113.288 6.16358 113.88 6.67381C114.492 7.18404 114.972 7.79632 115.319 8.51064C115.666 9.22496 115.87 10.0209 115.931 10.8985H111.921C111.819 10.123 111.502 9.52089 110.972 9.0923C110.461 8.6433 109.829 8.4188 109.073 8.4188C108.645 8.4188 108.247 8.49023 107.88 8.63309C107.512 8.77596 107.186 9.02087 106.9 9.36782C106.635 9.69437 106.42 10.1434 106.257 10.7148C106.094 11.2659 106.012 11.9496 106.012 12.766C106.012 14.4191 106.308 15.6437 106.9 16.4396C107.492 17.2356 108.175 17.6336 108.951 17.6336C109.727 17.6336 110.39 17.4193 110.941 16.9907C111.492 16.5621 111.808 15.9396 111.89 15.1232H115.9Z" fill="white"/>
<path d="M126.996 11.572C126.976 11.021 126.874 10.5414 126.69 10.1332C126.527 9.70458 126.302 9.35762 126.017 9.0923C125.731 8.80657 125.404 8.60248 125.037 8.48002C124.67 8.33716 124.292 8.26573 123.904 8.26573C123.108 8.26573 122.414 8.56166 121.822 9.15353C121.251 9.72499 120.924 10.5311 120.843 11.572H126.996ZM120.72 14.0823C120.782 15.2253 121.108 16.1335 121.7 16.807C122.312 17.4805 123.108 17.8172 124.088 17.8172C124.741 17.8172 125.312 17.6744 125.802 17.3886C126.312 17.0825 126.639 16.6641 126.782 16.1335H130.884C130.415 17.6846 129.598 18.8785 128.435 19.7153C127.272 20.5521 125.884 20.9705 124.272 20.9705C119.251 20.9705 116.741 18.2356 116.741 12.766C116.741 11.6026 116.904 10.5516 117.23 9.61273C117.557 8.67391 118.026 7.86775 118.639 7.19424C119.271 6.52074 120.037 6.01051 120.935 5.66355C121.833 5.29619 122.863 5.11251 124.027 5.11251C126.353 5.11251 128.108 5.85744 129.292 7.34731C130.496 8.83719 131.098 11.0822 131.098 14.0823H120.72Z" fill="white"/>
<path d="M132.474 20.5725V5.51049H136.209V7.3167C136.535 6.80647 136.872 6.40849 137.219 6.12276C137.586 5.83703 137.954 5.62274 138.321 5.47987C138.709 5.3166 139.097 5.21455 139.484 5.17373C139.872 5.13292 140.27 5.11251 140.678 5.11251H141.199V9.18414C140.831 9.12291 140.464 9.0923 140.097 9.0923C137.668 9.0923 136.454 10.3066 136.454 12.7353V20.5725H132.474Z" fill="white"/>
<path d="M50.3004 11.2551H62.4558C63.2018 11.2551 63.8064 11.8598 63.8064 12.6057C63.8064 13.3517 63.2018 13.9563 62.4558 13.9563H50.3004V11.2551Z" fill="white"/>
<path d="M62.0054 17.5579C61.5081 17.5579 61.105 17.1547 61.105 16.6575L61.105 14.4064L62.9058 14.4064L62.9058 16.6575C62.9058 17.1547 62.5027 17.5579 62.0054 17.5579Z" fill="white"/>
<path d="M58.8542 17.1077C58.3569 17.1077 57.9538 16.7045 57.9538 16.2073L57.9538 14.4064L59.7546 14.4064L59.7546 16.2073C59.7546 16.7045 59.3515 17.1077 58.8542 17.1077Z" fill="white"/>
<rect x="59.7544" y="15.7571" width="1.35061" height="1.35061" transform="rotate(-90 59.7544 15.7571)" fill="white"/>
</svg>
