<svg width="90" height="11" viewBox="0 0 90 11" fill="none" xmlns="http://www.w3.org/2000/svg">
<path d="M80.4804 5.78603C80.4701 5.51051 80.4191 5.2707 80.3273 5.06661C80.2456 4.85231 80.1334 4.67883 79.9905 4.54617C79.8477 4.40331 79.6844 4.30126 79.5007 4.24003C79.317 4.1686 79.1282 4.13288 78.9344 4.13288C78.5364 4.13288 78.1894 4.28085 77.8935 4.57678C77.6078 4.86251 77.4445 5.2656 77.4037 5.78603H80.4804ZM77.3424 7.0412C77.373 7.61265 77.5363 8.06676 77.8323 8.40351C78.1384 8.74026 78.5364 8.90864 79.0262 8.90864C79.3527 8.90864 79.6385 8.83721 79.8834 8.69434C80.1385 8.54127 80.3018 8.33208 80.3732 8.06676H82.4243C82.1896 8.84231 81.7814 9.43928 81.1998 9.85767C80.6181 10.2761 79.9242 10.4852 79.118 10.4852C76.6077 10.4852 75.3525 9.11783 75.3525 6.383C75.3525 5.80134 75.4342 5.2758 75.5974 4.80639C75.7607 4.33698 75.9954 3.9339 76.3016 3.59714C76.6179 3.26039 77.0006 3.00528 77.4496 2.8318C77.8986 2.64812 78.4139 2.55627 78.9956 2.55627C80.1589 2.55627 81.0365 2.92874 81.6284 3.67368C82.2304 4.41861 82.5315 5.54112 82.5315 7.0412H77.3424Z" fill="white"/>
<path d="M88.1174 10.2863V9.23008C87.6072 10.0669 86.8265 10.4852 85.7755 10.4852C85.3979 10.4852 85.0509 10.4189 84.7346 10.2863C84.4285 10.1536 84.1631 9.96481 83.9386 9.7199C83.7141 9.47499 83.5356 9.18416 83.4029 8.84741C83.2804 8.51066 83.2192 8.13309 83.2192 7.7147V2.75526H85.2091V7.40856C85.2091 8.34738 85.6326 8.8168 86.4796 8.8168C86.9898 8.8168 87.3725 8.65862 87.6276 8.34228C87.8929 8.01574 88.0256 7.60245 88.0256 7.10242V2.75526H90.0002V10.2863H88.1174Z" fill="white"/>
<path d="M72.9846 10.5113C73.7894 10.5113 74.4478 9.85286 74.4478 9.04812C74.4478 8.24338 73.7894 7.58496 72.9846 7.58496C72.1799 7.58496 71.5215 8.24338 71.5215 9.04812C71.5215 9.85286 72.1799 10.5113 72.9846 10.5113Z" fill="#F2C94C"/>
<path d="M1.1174 10.2862V4.16348H0V2.75524H1.1174C1.1174 0.918414 2.18379 0 4.31655 0V1.60722C4.06143 1.60722 3.85224 1.62763 3.68896 1.66845C3.53589 1.69907 3.41344 1.76029 3.3216 1.85214C3.22976 1.94398 3.16343 2.06643 3.12261 2.2195C3.09199 2.36237 3.07669 2.54095 3.07669 2.75524H4.36247V4.16348H3.07669V10.2862H1.1174Z" fill="white"/>
<path d="M4.85109 10.2862V2.75524H6.71853V3.65835C6.88181 3.40323 7.05018 3.20425 7.22366 3.06138C7.40735 2.91852 7.59103 2.81137 7.77471 2.73994C7.9686 2.6583 8.16248 2.60728 8.35637 2.58687C8.55026 2.56646 8.74925 2.55625 8.95334 2.55625H9.21356V4.59207C9.02988 4.56146 8.84619 4.54615 8.66251 4.54615C7.44816 4.54615 6.84099 5.15332 6.84099 6.36767V10.2862H4.85109Z" fill="white"/>
<path d="M14.2651 5.78601C14.2549 5.51048 14.2038 5.27068 14.112 5.06658C14.0304 4.85229 13.9181 4.67881 13.7753 4.54615C13.6324 4.40329 13.4691 4.30124 13.2854 4.24001C13.1018 4.16858 12.913 4.13286 12.7191 4.13286C12.3211 4.13286 11.9741 4.28083 11.6782 4.57676C11.3925 4.86249 11.2292 5.26557 11.1884 5.78601H14.2651ZM11.1272 7.04118C11.1578 7.61263 11.321 8.06674 11.617 8.40349C11.9231 8.74024 12.3211 8.90862 12.8109 8.90862C13.1375 8.90862 13.4232 8.83719 13.6681 8.69432C13.9232 8.54125 14.0865 8.33206 14.1579 8.06674H16.2091C15.9743 8.84229 15.5662 9.43926 14.9845 9.85765C14.4028 10.276 13.7089 10.4852 12.9028 10.4852C10.3924 10.4852 9.13726 9.11781 9.13726 6.38298C9.13726 5.80132 9.2189 5.27578 9.38217 4.80637C9.54545 4.33696 9.78015 3.93387 10.0863 3.59712C10.4026 3.26037 10.7853 3.00526 11.2343 2.83178C11.6833 2.64809 12.1986 2.55625 12.7803 2.55625C13.9436 2.55625 14.8212 2.92872 15.4131 3.67366C16.0152 4.41859 16.3162 5.5411 16.3162 7.04118H11.1272Z" fill="white"/>
<path d="M21.9634 5.78601C21.9532 5.51048 21.9021 5.27068 21.8103 5.06658C21.7287 4.85229 21.6164 4.67881 21.4735 4.54615C21.3307 4.40329 21.1674 4.30124 20.9837 4.24001C20.8 4.16858 20.6113 4.13286 20.4174 4.13286C20.0194 4.13286 19.6724 4.28083 19.3765 4.57676C19.0908 4.86249 18.9275 5.26557 18.8867 5.78601H21.9634ZM18.8255 7.04118C18.8561 7.61263 19.0193 8.06674 19.3153 8.40349C19.6214 8.74024 20.0194 8.90862 20.5092 8.90862C20.8358 8.90862 21.1215 8.83719 21.3664 8.69432C21.6215 8.54125 21.7848 8.33206 21.8562 8.06674H23.9073C23.6726 8.84229 23.2645 9.43926 22.6828 9.85765C22.1011 10.276 21.4072 10.4852 20.6011 10.4852C18.0907 10.4852 16.8356 9.11781 16.8356 6.38298C16.8356 5.80132 16.9172 5.27578 17.0805 4.80637C17.2437 4.33696 17.4784 3.93387 17.7846 3.59712C18.1009 3.26037 18.4836 3.00526 18.9326 2.83178C19.3816 2.64809 19.8969 2.55625 20.4786 2.55625C21.6419 2.55625 22.5195 2.92872 23.1114 3.67366C23.7135 4.41859 24.0145 5.5411 24.0145 7.04118H18.8255Z" fill="white"/>
<path d="M33.2012 10.2862V0H35.1911V10.2862H33.2012Z" fill="white"/>
<path d="M40.6031 6.59727C40.5011 6.69932 40.3531 6.78096 40.1592 6.84219C39.9653 6.90341 39.6847 6.96974 39.3174 7.04118C38.7459 7.15343 38.353 7.29629 38.1387 7.46977C37.9244 7.64325 37.8173 7.89326 37.8173 8.21981C37.8173 8.78106 38.1387 9.06169 38.7816 9.06169C39.0367 9.06169 39.2714 9.02087 39.4857 8.93923C39.7102 8.84739 39.899 8.73004 40.0521 8.58717C40.2154 8.4341 40.3429 8.26062 40.4348 8.06674C40.5368 7.86265 40.5878 7.64835 40.5878 7.42385L40.6031 6.59727ZM40.7409 10.2862C40.6797 10.0924 40.6389 9.86785 40.6184 9.61273C40.3837 9.87805 40.0725 10.0924 39.6847 10.2556C39.2969 10.4087 38.8479 10.4852 38.3377 10.4852C37.4703 10.4852 36.8325 10.2964 36.4244 9.91887C36.0264 9.5311 35.8274 9.03107 35.8274 8.4188C35.8274 7.87795 35.9141 7.44936 36.0876 7.13302C36.2611 6.80647 36.5009 6.55135 36.807 6.36767C37.1132 6.18399 37.4754 6.05133 37.8938 5.96969C38.3224 5.87785 38.7867 5.79621 39.2867 5.72478C39.7868 5.65335 40.1235 5.56151 40.297 5.44926C40.4705 5.3268 40.5572 5.13292 40.5572 4.8676C40.5572 4.62268 40.4399 4.4339 40.2052 4.30124C39.9807 4.15838 39.6745 4.08694 39.2867 4.08694C38.8275 4.08694 38.4959 4.18899 38.2918 4.39308C38.0979 4.59717 37.9755 4.8676 37.9244 5.20435H36.0723C36.0825 4.81657 36.1437 4.45941 36.256 4.13286C36.3784 3.80632 36.5672 3.52569 36.8223 3.29098C37.0877 3.05628 37.4295 2.8777 37.8479 2.75524C38.2663 2.62258 38.7765 2.55625 39.3786 2.55625C39.9705 2.55625 40.4705 2.62258 40.8787 2.75524C41.297 2.8879 41.6287 3.08179 41.8736 3.3369C42.1287 3.58182 42.3124 3.89306 42.4247 4.27063C42.5369 4.63799 42.593 5.05638 42.593 5.52579V10.2862H40.7409Z" fill="white"/>
<path d="M48.2922 10.2862V5.72478C48.2922 5.14312 48.1953 4.75024 48.0014 4.54615C47.8075 4.34206 47.4759 4.24001 47.0064 4.24001C45.9758 4.24001 45.4604 4.81657 45.4604 5.96969V10.2862H43.4705V2.75524H45.3686V3.85734C45.6033 3.42875 45.9146 3.1073 46.3023 2.893C46.6901 2.6685 47.1901 2.55625 47.8024 2.55625C48.1596 2.55625 48.4912 2.61238 48.7974 2.72463C49.1035 2.82667 49.3637 2.98485 49.578 3.19914C49.8025 3.41344 49.976 3.67876 50.0984 3.9951C50.2311 4.30124 50.2974 4.6584 50.2974 5.06658V10.2862H48.2922Z" fill="white"/>
<path d="M57.9498 7.56161C57.8988 8.00041 57.7712 8.39839 57.5671 8.75555C57.3732 9.11271 57.1232 9.41885 56.8171 9.67396C56.511 9.92908 56.1589 10.1281 55.7609 10.2709C55.3731 10.4138 54.9496 10.4852 54.4904 10.4852C53.9802 10.4852 53.5108 10.4036 53.0822 10.2403C52.6638 10.0668 52.3016 9.81172 51.9954 9.47497C51.6893 9.12802 51.4495 8.70452 51.276 8.2045C51.1127 7.69427 51.0311 7.1024 51.0311 6.4289C51.0311 5.75539 51.1127 5.17373 51.276 4.68391C51.4495 4.19409 51.6893 3.79611 51.9954 3.48997C52.3016 3.17363 52.6689 2.93893 53.0975 2.78586C53.5363 2.63279 54.021 2.55625 54.5517 2.55625C55.0415 2.55625 55.4854 2.62258 55.8834 2.75524C56.2916 2.8879 56.6436 3.08179 56.9395 3.3369C57.2457 3.59202 57.4855 3.89816 57.659 4.25532C57.8324 4.61248 57.9345 5.01046 57.9651 5.44926H55.9599C55.9089 5.06148 55.7507 4.76045 55.4854 4.54615C55.2303 4.32165 54.9139 4.2094 54.5364 4.2094C54.3221 4.2094 54.1231 4.24511 53.9394 4.31655C53.7557 4.38798 53.5924 4.51043 53.4496 4.68391C53.3169 4.84719 53.2098 5.07169 53.1281 5.35742C53.0465 5.63294 53.0057 5.97479 53.0057 6.38298C53.0057 7.20955 53.1536 7.82183 53.4496 8.21981C53.7455 8.61779 54.0874 8.81678 54.4751 8.81678C54.8629 8.81678 55.1946 8.70963 55.4701 8.49533C55.7456 8.28103 55.9038 7.96979 55.9446 7.56161H57.9498Z" fill="white"/>
<path d="M63.4977 5.78601C63.4875 5.51048 63.4365 5.27068 63.3446 5.06658C63.263 4.85229 63.1508 4.67881 63.0079 4.54615C62.865 4.40329 62.7018 4.30124 62.5181 4.24001C62.3344 4.16858 62.1456 4.13286 61.9517 4.13286C61.5537 4.13286 61.2068 4.28083 60.9109 4.57676C60.6251 4.86249 60.4618 5.26557 60.421 5.78601H63.4977ZM60.3598 7.04118C60.3904 7.61263 60.5537 8.06674 60.8496 8.40349C61.1558 8.74024 61.5537 8.90862 62.0436 8.90862C62.3701 8.90862 62.6558 8.83719 62.9007 8.69432C63.1559 8.54125 63.3191 8.33206 63.3906 8.06674H65.4417C65.207 8.84229 64.7988 9.43926 64.2171 9.85765C63.6355 10.276 62.9416 10.4852 62.1354 10.4852C59.6251 10.4852 58.3699 9.11781 58.3699 6.38298C58.3699 5.80132 58.4515 5.27578 58.6148 4.80637C58.7781 4.33696 59.0128 3.93387 59.3189 3.59712C59.6353 3.26037 60.0179 3.00526 60.467 2.83178C60.916 2.64809 61.4313 2.55625 62.0129 2.55625C63.1763 2.55625 64.0539 2.92872 64.6457 3.67366C65.2478 4.41859 65.5488 5.5411 65.5488 7.04118H60.3598Z" fill="white"/>
<path d="M66.2366 10.2862V2.75524H68.104V3.65835C68.2673 3.40323 68.4357 3.20425 68.6091 3.06138C68.7928 2.91852 68.9765 2.81137 69.1602 2.73994C69.3541 2.6583 69.548 2.60728 69.7419 2.58687C69.9357 2.56646 70.1347 2.55625 70.3388 2.55625H70.599V4.59207C70.4154 4.56146 70.2317 4.54615 70.048 4.54615C68.8336 4.54615 68.2265 5.15332 68.2265 6.36767V10.2862H66.2366Z" fill="white"/>
<path d="M25.1504 5.62756H31.2281C31.6011 5.62756 31.9034 5.92991 31.9034 6.30287V6.30287C31.9034 6.67583 31.6011 6.97817 31.2281 6.97817H25.1504V5.62756Z" fill="white"/>
<path d="M31.0029 8.77893C30.7543 8.77893 30.5527 8.57737 30.5527 8.32873L30.5527 7.20322L31.4531 7.20322L31.4531 8.32873C31.4531 8.57737 31.2516 8.77893 31.0029 8.77893V8.77893Z" fill="white"/>
<path d="M29.4277 8.55383C29.1791 8.55383 28.9775 8.35227 28.9775 8.10363L28.9775 7.20322L29.8779 7.20322L29.8779 8.10363C29.8779 8.35227 29.6764 8.55383 29.4277 8.55383V8.55383Z" fill="white"/>
<rect x="29.8779" y="7.87854" width="0.675304" height="0.675305" transform="rotate(-90 29.8779 7.87854)" fill="white"/>
</svg>
