<svg width="80" height="80" viewBox="0 0 80 80" fill="none" xmlns="http://www.w3.org/2000/svg">
<path d="M31.564 56.0627C31.2618 56.0627 30.9574 55.9588 30.7091 55.7473L22.1625 48.4699C21.8677 48.2185 21.6982 47.8515 21.6982 47.4638C21.6982 47.0769 21.8684 46.7098 22.1625 46.4585L30.7091 39.1811C31.264 38.7079 32.0976 38.775 32.5708 39.33C33.0432 39.8857 32.9769 40.7193 32.4212 41.1917L25.0561 47.4638L32.4212 53.7359C32.9769 54.2091 33.0432 55.0427 32.5708 55.5977C32.3092 55.905 31.9377 56.0627 31.564 56.0627Z" fill="white"/>
<path d="M48.436 56.0627C48.0623 56.0627 47.6909 55.905 47.4299 55.5977C46.9568 55.0427 47.0238 54.2091 47.5788 53.7359L54.944 47.4638L47.5788 41.1917C47.0238 40.7193 46.9568 39.8857 47.4299 39.33C47.9024 38.775 48.7367 38.7079 49.2909 39.1811L57.8375 46.4585C58.1323 46.7098 58.3019 47.0769 58.3019 47.4638C58.3019 47.8515 58.1323 48.2185 57.8375 48.4699L49.2909 55.7473C49.0426 55.9588 48.7382 56.0627 48.436 56.0627Z" fill="white"/>
<path d="M36.9745 61.5211C36.8838 61.5211 36.7924 61.5116 36.7003 61.4924C35.9869 61.342 35.5299 60.6411 35.6803 59.9277L41.0068 34.638C41.1571 33.9246 41.8573 33.4676 42.5715 33.618C43.2849 33.7683 43.7419 34.4685 43.5915 35.1827L38.265 60.4723C38.1338 61.0944 37.5855 61.5211 36.9745 61.5211Z" fill="white"/>
<path d="M71.1321 75.2993H8.86792C3.97848 75.2993 0 71.3215 0 66.4314V13.585C0 8.69552 3.97848 4.71704 8.86792 4.71704H71.1321C76.0215 4.71704 80 8.69552 80 13.585V66.4314C80 71.3215 76.0215 75.2993 71.1321 75.2993ZM8.86792 7.35855C5.43485 7.35855 2.64151 10.1519 2.64151 13.585V66.4314C2.64151 69.8644 5.43485 72.6578 8.86792 72.6578H71.1321C74.5652 72.6578 77.3585 69.8644 77.3585 66.4314V13.585C77.3585 10.1519 74.5652 7.35855 71.1321 7.35855H8.86792Z" fill="white"/>
<path d="M78.6792 25.8661H1.32075C0.591097 25.8661 0 25.275 0 24.5454C0 23.8164 0.591097 23.2246 1.32075 23.2246H78.6792C79.4089 23.2246 80 23.8164 80 24.5454C80 25.275 79.4089 25.8661 78.6792 25.8661Z" fill="white"/>
<path d="M22.5663 19.5459C20.2623 19.5459 18.3866 17.6702 18.3866 15.3662C18.3866 13.0615 20.2623 11.1865 22.5663 11.1865C24.871 11.1865 26.746 13.0615 26.746 15.3662C26.746 17.6702 24.871 19.5459 22.5663 19.5459ZM22.5663 13.828C21.7187 13.828 21.0281 14.5179 21.0281 15.3662C21.0281 16.2145 21.7187 16.9044 22.5663 16.9044C23.4146 16.9044 24.1045 16.2145 24.1045 15.3662C24.1045 14.5179 23.4146 13.828 22.5663 13.828Z" fill="white"/>
<path d="M9.72432 19.5054C7.41963 19.5054 5.54463 17.6304 5.54463 15.3257C5.54463 13.021 7.41963 11.146 9.72432 11.146C12.029 11.146 13.904 13.021 13.904 15.3257C13.904 17.6304 12.029 19.5054 9.72432 19.5054ZM9.72432 13.7875C8.87674 13.7875 8.18614 14.4781 8.18614 15.3257C8.18614 16.174 8.87674 16.8639 9.72432 16.8639C10.5726 16.8639 11.2625 16.174 11.2625 15.3257C11.2625 14.4781 10.5726 13.7875 9.72432 13.7875Z" fill="white"/>
<path d="M35.4083 19.5857C33.1044 19.5857 31.2294 17.7107 31.2294 15.406C31.2294 13.1021 33.1044 11.2271 35.4083 11.2271C37.713 11.2271 39.588 13.1021 39.588 15.406C39.588 17.7107 37.713 19.5857 35.4083 19.5857ZM35.4083 13.8678C34.5608 13.8678 33.8709 14.5577 33.8709 15.406C33.8709 16.2543 34.5608 16.9442 35.4083 16.9442C36.2567 16.9442 36.9465 16.2543 36.9465 15.406C36.9465 14.5577 36.2567 13.8678 35.4083 13.8678Z" fill="white"/>
</svg>
